<?xml version="1.0" encoding="utf-8"?>
<svg version="1.1" xmlns="http://www.w3.org/2000/svg" xmlns:xlink="http://www.w3.org/1999/xlink" x="0px" y="0px"
	 width="841.89px" height="253.887px" viewBox="0 0 841.89 253.887" enable-background="new 0 0 841.89 253.887"
	 xml:space="preserve">
<g>
	<path fill="#7F4C26" d="M495.771,176.969v76.918h-96.151v-19.233H380.39v-19.229h19.229v-19.23h57.688v-19.226h-57.688v-19.233
		h76.922v19.233H495.771z M457.307,215.425h-38.458v19.229h38.458V215.425z"/>
	<path fill="#7F4C26" d="M630.369,176.969v76.918H591.91v-76.918h-38.459v76.918h-38.46v-96.151h96.152v19.233H630.369z"/>
	<path fill="#7F4C26" d="M764.975,176.969v38.456h-76.918v19.229h76.918v19.233h-96.146v-19.233h-19.229v-57.685h19.229v-19.233
		h76.918v19.233H764.975z M726.517,176.969h-38.46v19.226h38.46V176.969z"/>
	<path fill="#7F4C26" d="M841.89,234.653v19.233h-38.459v-19.233h-19.226V119.277h38.454v115.376H841.89z"/>
</g>
<path fill="#7F4C26" d="M218.223,112.128v118.128h-23.627v23.631h-94.508v-23.631H76.464V112.128h23.625V88.501h94.508v23.627
	H218.223z M170.969,112.128h-47.253v118.128h47.253V112.128z"/>
<path fill="#7F4C26" d="M383.602,112.128v23.621h-23.627v23.631h-70.878v94.507h-47.254V88.501h118.132v23.627H383.602z
	 M336.347,112.128h-47.251v23.621h47.251V112.128z"/>
<g>
	<polygon fill="#A06536" points="242.933,53.854 233.976,53.854 233.976,53.85 242.933,53.85 242.933,44.874 233.976,44.874 
		233.976,35.906 225.01,35.906 225.01,26.92 180.169,26.92 180.169,26.937 171.206,26.937 162.236,26.937 162.236,26.92 
		171.206,26.92 171.206,17.949 153.267,17.949 153.267,8.976 135.325,8.976 135.325,0 108.425,0 108.425,8.976 72.545,8.976 
		72.545,17.949 54.612,17.949 54.612,26.92 63.583,26.92 63.583,26.947 54.612,26.947 54.612,26.92 45.643,26.92 45.643,35.906 
		54.612,35.906 54.612,35.91 45.643,35.91 45.643,35.906 36.673,35.906 36.673,44.874 36.673,53.85 36.673,62.827 36.673,80.758 
		45.643,80.758 45.643,80.765 45.643,98.706 36.673,98.706 36.673,107.661 27.702,107.661 27.702,116.642 18.74,116.642 
		18.74,125.614 18.74,125.618 9.771,125.618 9.771,143.549 18.74,143.549 18.74,143.573 9.771,143.573 9.771,143.565 0.81,143.565 
		0.81,152.541 0.81,170.472 9.771,170.472 9.771,170.488 0.81,170.488 0.81,179.46 9.771,179.46 9.771,188.436 18.74,188.436 
		27.702,188.436 27.702,197.407 45.643,197.407 45.643,188.436 45.651,188.436 45.651,197.407 90.492,197.407 108.425,197.407 
		108.425,188.436 117.395,188.436 126.36,188.436 135.325,188.436 135.325,179.46 153.267,179.46 153.267,170.488 162.236,170.488 
		171.206,170.488 171.206,161.521 171.206,161.5 180.169,161.5 180.169,152.541 189.13,152.541 189.13,143.565 189.13,134.59 
		189.13,125.614 189.13,116.646 189.13,116.642 189.13,89.736 189.13,62.827 189.13,44.892 180.169,44.892 171.206,44.892 
		162.236,44.892 162.236,44.864 171.206,44.864 180.169,44.864 180.169,44.874 216.039,44.874 216.039,44.88 189.143,44.88 
		189.143,71.789 189.143,71.797 189.143,116.63 216.039,116.63 216.039,116.642 207.084,116.642 207.069,116.642 189.143,116.642 
		189.143,125.614 189.143,134.59 189.143,143.565 207.084,143.565 207.084,134.59 216.039,134.59 216.039,125.614 225.01,125.614 
		225.01,116.642 233.976,116.642 233.976,107.673 242.933,107.673 242.933,89.736 233.976,89.736 233.976,89.73 242.933,89.73 
		251.902,89.73 251.902,53.854 	"/>
	<g>
		<rect x="72.545" y="8.976" fill="#B68154" width="35.88" height="8.973"/>
		<rect x="108.425" fill="#B68154" width="26.9" height="8.976"/>
		<polyline fill="#B68154" points="54.612,17.949 72.545,17.949 72.545,26.92 54.612,26.92 		"/>
		<polyline fill="#B68154" points="45.643,26.92 54.612,26.92 54.612,35.906 45.643,35.906 		"/>
		<polyline fill="#B68154" points="36.673,35.906 45.643,35.906 45.643,44.874 36.673,44.874 		"/>
		<polyline fill="#976941" points="36.673,44.874 45.643,44.874 45.643,53.85 36.673,53.85 		"/>
		<polyline fill="#7F4C26" points="36.673,53.85 45.643,53.85 45.643,62.827 36.673,62.827 		"/>
		<polyline fill="#B68154" points="36.673,62.827 45.643,62.827 45.643,80.758 36.673,80.758 		"/>
		<polyline fill="#A06536" points="45.643,71.797 54.612,71.797 54.612,80.765 45.643,80.765 		"/>
		<polyline fill="#B77741" points="45.643,35.91 54.612,35.91 54.612,71.789 45.643,71.789 		"/>
		<polyline fill="#B77741" points="54.612,26.947 63.583,26.947 63.583,44.88 54.612,44.88 		"/>
		<polyline fill="#A06536" points="54.612,44.88 63.583,44.88 63.583,62.821 54.612,62.821 		"/>
		<polyline fill="#B77741" points="63.583,35.906 72.545,35.906 72.545,53.843 63.583,53.843 		"/>
		<polyline fill="#A06536" points="63.583,26.92 81.51,26.92 81.51,35.906 63.583,35.906 		"/>
		<rect x="72.545" y="17.949" fill="#7F4C26" width="35.88" height="8.972"/>
		<polyline fill="#A06536" points="108.425,17.949 126.36,17.949 126.36,26.92 108.425,26.92 		"/>
		<rect x="108.425" y="8.976" fill="#B77741" width="26.9" height="8.973"/>
		<rect x="126.36" y="17.949" fill="#B77741" width="44.846" height="8.972"/>
		<polyline fill="#B68154" points="135.325,8.976 153.267,8.976 153.267,17.949 135.325,17.949 		"/>
		<polyline fill="#B77741" points="162.236,26.937 171.206,26.937 171.206,44.864 162.236,44.864 		"/>
		<polyline fill="#A06536" points="171.206,26.937 180.169,26.937 180.169,44.864 171.206,44.864 		"/>
		<rect x="180.169" y="35.906" fill="#A06536" width="44.841" height="8.968"/>
		<polyline fill="#A06536" points="216.039,44.874 233.976,44.874 233.976,53.85 216.039,53.85 		"/>
		<rect x="180.169" y="26.92" fill="#B77741" width="44.841" height="8.986"/>
		<polyline fill="#B77741" points="225.01,35.906 233.976,35.906 233.976,44.874 225.01,44.874 		"/>
		<polyline fill="#B77741" points="233.976,44.874 242.933,44.874 242.933,53.85 233.976,53.85 		"/>
		<polyline fill="#B77741" points="242.933,53.854 251.902,53.854 251.902,89.73 242.933,89.73 		"/>
		<polyline fill="#A06536" points="233.976,53.854 242.933,53.854 242.933,89.73 233.976,89.73 		"/>
		<polyline fill="#B77741" points="216.039,80.758 225.01,80.758 225.01,107.661 216.039,107.661 		"/>
		<polyline fill="#C39064" points="216.039,53.85 233.976,53.85 233.976,62.827 216.039,62.827 		"/>
		<polyline fill="#C39064" points="189.143,44.88 216.039,44.88 216.039,71.797 189.143,71.797 		"/>
		<polyline fill="#C39064" points="180.169,44.892 189.13,44.892 189.13,62.827 180.169,62.827 		"/>
		<polyline fill="#B77741" points="171.206,44.892 180.169,44.892 180.169,62.827 171.206,62.827 		"/>
		<polyline fill="#B77741" points="180.169,62.827 189.13,62.827 189.13,89.736 180.169,89.736 		"/>
		<polyline fill="#B77741" points="216.039,62.827 233.976,62.827 233.976,80.758 216.039,80.758 		"/>
		<polyline fill="#B77741" points="189.143,71.789 216.039,71.789 216.039,116.63 189.143,116.63 		"/>
		<polyline fill="#A06536" points="225.01,80.758 233.976,80.758 233.976,107.661 225.01,107.661 		"/>
		<polyline fill="#A06536" points="216.039,107.661 225.01,107.661 225.01,116.642 216.039,116.642 		"/>
		<polyline fill="#A06536" points="207.069,116.642 216.039,116.642 216.039,125.614 207.069,125.614 		"/>
		<polyline fill="#A06536" points="189.143,125.614 207.084,125.614 207.084,134.59 189.143,134.59 		"/>
		<polyline fill="#A06536" points="180.169,134.59 189.13,134.59 189.13,143.565 180.169,143.565 		"/>
		<polyline fill="#B77741" points="233.976,89.736 242.933,89.736 242.933,107.673 233.976,107.673 		"/>
		<polyline fill="#B77741" points="225.01,107.661 233.976,107.661 233.976,116.642 225.01,116.642 		"/>
		<polyline fill="#B77741" points="216.039,116.642 225.01,116.642 225.01,125.614 216.039,125.614 		"/>
		<polyline fill="#B77741" points="207.069,125.614 216.039,125.614 216.039,134.59 207.069,134.59 		"/>
		<polyline fill="#B77741" points="189.143,134.59 207.084,134.59 207.084,143.565 189.143,143.565 		"/>
		<polyline fill="#B77741" points="180.169,143.565 189.13,143.565 189.13,152.541 180.169,152.541 		"/>
		<polyline fill="#B77741" points="189.143,116.642 207.084,116.642 207.084,125.614 189.143,125.614 		"/>
		<polyline fill="#B77741" points="180.169,125.614 189.13,125.614 189.13,134.59 180.169,134.59 		"/>
		<polyline fill="#B77741" points="171.206,134.594 180.169,134.594 180.169,161.5 171.206,161.5 		"/>
		<polyline fill="#B77741" points="153.267,143.565 171.206,143.565 171.206,152.541 153.267,152.541 		"/>
		<polyline fill="#A06536" points="162.236,152.541 171.206,152.541 171.206,161.521 162.236,161.521 		"/>
		<polyline fill="#B77741" points="162.236,161.5 171.206,161.5 171.206,170.488 162.236,170.488 		"/>
		<polyline fill="#B77741" points="144.297,152.549 162.236,152.549 162.236,170.488 144.297,170.488 		"/>
		<polyline fill="#B77741" points="135.325,170.488 153.267,170.488 153.267,179.46 135.325,179.46 		"/>
		<polyline fill="#B77741" points="126.36,161.5 144.297,161.5 144.297,170.488 126.36,170.488 		"/>
		<polyline fill="#A06536" points="126.36,170.488 135.325,170.488 135.325,179.46 126.36,179.46 		"/>
		<polyline fill="#B77741" points="126.36,179.46 135.325,179.46 135.325,188.436 126.36,188.436 		"/>
		<polyline fill="#B77741" points="90.492,170.488 126.36,170.488 126.36,179.46 90.492,179.46 		"/>
		<polyline fill="#B77741" points="108.425,179.46 117.395,179.46 117.395,188.436 108.425,188.436 		"/>
		<polyline fill="#B68154" points="117.395,179.46 126.36,179.46 126.36,188.436 117.395,188.436 		"/>
		<polyline fill="#B68154" points="90.492,188.436 108.425,188.436 108.425,197.407 90.492,197.407 		"/>
		<polyline fill="#A06536" points="27.702,179.46 108.425,179.46 108.425,188.436 27.702,188.436 		"/>
		<polyline fill="#A06536" points="45.643,170.488 90.492,170.488 90.492,179.46 45.643,179.46 		"/>
		<polyline fill="#B77741" points="45.651,188.436 90.492,188.436 90.492,197.407 45.651,197.407 		"/>
		<polyline fill="#B68154" points="27.702,188.436 45.643,188.436 45.643,197.407 27.702,197.407 		"/>
		<polyline fill="#B77741" points="27.702,170.488 45.643,170.488 45.643,179.46 27.702,179.46 		"/>
		<polyline fill="#B77741" points="18.74,134.61 36.673,134.61 36.673,170.488 18.74,170.488 		"/>
		<polyline fill="#A06536" points="18.74,170.488 27.702,170.488 27.702,179.46 18.74,179.46 		"/>
		<polyline fill="#B77741" points="18.74,179.46 27.702,179.46 27.702,188.436 18.74,188.436 		"/>
		<polyline fill="#B68154" points="9.771,179.46 18.74,179.46 18.74,188.436 9.771,188.436 		"/>
		<polyline fill="#B68154" points="0.81,170.488 18.75,170.488 18.75,179.46 0.81,179.46 		"/>
		<polyline fill="#A06536" points="9.771,143.573 18.74,143.573 18.74,170.488 9.771,170.488 		"/>
		<polyline fill="#B77741" points="0.81,152.541 9.771,152.541 9.771,170.472 0.81,170.472 		"/>
		<polyline fill="#B68154" points="0.81,143.565 9.771,143.565 9.771,152.541 0.81,152.541 		"/>
		<polyline fill="#B77741" points="9.771,125.618 18.74,125.618 18.74,143.549 9.771,143.549 		"/>
		<polyline fill="#A06536" points="18.74,125.614 27.702,125.614 27.702,134.59 18.74,134.59 		"/>
		<rect x="27.702" y="125.614" fill="#B77741" width="26.91" height="8.976"/>
		<polyline fill="#B77741" points="36.673,134.59 45.643,134.59 45.643,143.565 36.673,143.565 		"/>
		<polyline fill="#B77741" points="36.689,116.642 54.622,116.642 54.622,125.614 36.689,125.614 		"/>
		<polyline fill="#B77741" points="27.702,107.661 45.643,107.661 45.643,116.642 27.702,116.642 		"/>
		<polyline fill="#A06536" points="27.702,116.642 36.673,116.642 36.673,125.614 27.702,125.614 		"/>
		<polyline fill="#B68154" points="18.74,116.642 27.702,116.642 27.702,125.614 18.74,125.614 		"/>
		<polyline fill="#B77741" points="36.673,98.706 45.643,98.706 45.643,107.677 36.673,107.677 		"/>
		<polyline fill="#7F4C26" points="45.643,80.758 54.612,80.758 54.612,107.661 45.643,107.661 		"/>
		<polyline fill="#A06536" points="45.643,107.661 54.612,107.661 54.612,116.642 45.643,116.642 		"/>
		<polyline fill="#623B1E" points="54.612,98.706 63.583,98.706 63.583,107.677 54.612,107.677 		"/>
		<polyline fill="#7F4C26" points="54.612,71.789 63.583,71.789 63.583,98.699 54.612,98.699 		"/>
		<polyline fill="#B68154" points="54.612,62.821 63.583,62.821 63.583,71.797 54.612,71.797 		"/>
		<polyline fill="#B68154" points="63.583,53.85 72.553,53.85 72.553,62.827 63.583,62.827 		"/>
		<polyline fill="#B77741" points="72.545,35.906 90.48,35.906 90.48,44.874 72.545,44.874 		"/>
		<polyline fill="#C39064" points="72.545,44.874 90.48,44.874 90.48,53.85 72.545,53.85 		"/>
		<polyline fill="#C39064" points="90.48,35.906 117.395,35.906 117.395,44.874 90.48,44.874 		"/>
		<polyline fill="#B77741" points="81.523,26.92 117.395,26.92 117.395,35.906 81.523,35.906 		"/>
		<polyline fill="#C39064" points="117.395,26.92 144.31,26.92 144.31,35.906 117.395,35.906 		"/>
		<polyline fill="#B68154" points="144.297,26.92 153.267,26.92 153.267,35.906 144.297,35.906 		"/>
		<polyline fill="#7F4C26" points="153.267,26.92 162.236,26.92 162.236,35.906 153.267,35.906 		"/>
		<polyline fill="#A06536" points="153.267,35.906 162.236,35.906 162.236,53.833 153.267,53.833 		"/>
		<polyline fill="#7F4C26" points="162.236,44.892 171.206,44.892 171.206,62.827 162.236,62.827 		"/>
		<polyline fill="#7F4C26" points="171.206,62.821 180.169,62.821 180.169,98.689 171.206,98.689 		"/>
		<polyline fill="#A06536" points="162.236,62.821 171.206,62.821 171.206,107.661 162.236,107.661 		"/>
		<polyline fill="#58371C" points="180.169,89.736 189.13,89.736 189.13,116.646 180.169,116.646 		"/>
		<polyline fill="#58371C" points="171.206,98.706 180.169,98.706 180.169,107.677 171.206,107.677 		"/>
		<polyline fill="#4F321A" points="153.267,107.661 180.169,107.661 180.169,125.6 153.267,125.6 		"/>
		<polyline fill="#3F2813" points="180.169,116.642 189.13,116.642 189.13,125.614 180.169,125.614 		"/>
		<polyline fill="#3F2813" points="171.206,125.614 180.169,125.614 180.169,134.59 171.206,134.59 		"/>
		<polyline fill="#3F2813" points="153.254,134.59 171.206,134.59 171.206,143.565 153.254,143.565 		"/>
		<polyline fill="#3F2813" points="144.297,143.565 153.267,143.565 153.267,152.541 144.297,152.541 		"/>
		<polyline fill="#3F2813" points="126.36,152.541 144.31,152.541 144.31,161.521 126.36,161.521 		"/>
		<polyline fill="#3F2813" points="72.553,161.5 126.368,161.5 126.368,170.488 72.553,170.488 		"/>
		<polyline fill="#4F321A" points="144.297,116.642 153.267,116.642 153.267,125.614 144.297,125.614 		"/>
		<polyline fill="#4F321A" points="117.399,125.614 171.22,125.614 171.22,134.59 117.399,134.59 		"/>
		<polyline fill="#4F321A" points="108.425,134.59 153.267,134.59 153.267,143.565 108.425,143.565 		"/>
		<polyline fill="#4F321A" points="117.395,143.565 144.297,143.565 144.297,152.541 117.395,152.541 		"/>
		<polyline fill="#311F10" points="117.395,152.541 126.36,152.541 126.36,161.521 117.395,161.521 		"/>
		<polyline fill="#311F10" points="90.492,143.573 117.395,143.573 117.395,161.5 90.492,161.5 		"/>
		<polyline fill="#311F10" points="81.51,134.59 108.417,134.59 108.417,143.565 81.51,143.565 		"/>
		<polyline fill="#311F10" points="81.523,143.565 90.492,143.565 90.492,152.541 81.523,152.541 		"/>
		<polyline fill="#1C1108" points="81.523,152.541 90.492,152.541 90.492,161.521 81.523,161.521 		"/>
		<polyline fill="#1C1108" points="63.583,134.594 81.51,134.594 81.51,161.5 63.583,161.5 		"/>
		<polyline fill="#58371C" points="63.583,161.5 72.545,161.5 72.545,170.488 63.583,170.488 		"/>
		<polyline fill="#58371C" points="54.612,152.541 63.583,152.541 63.583,161.521 54.612,161.521 		"/>
		<polyline fill="#7F4C26" points="54.612,161.5 63.583,161.5 63.583,170.488 54.612,170.488 		"/>
		<polyline fill="#7F4C26" points="45.643,152.541 54.612,152.541 54.612,161.521 45.643,161.521 		"/>
		<polyline fill="#A06536" points="36.689,161.5 54.622,161.5 54.622,170.488 36.689,170.488 		"/>
		<polyline fill="#A06536" points="36.673,143.573 45.643,143.573 45.643,161.5 36.673,161.5 		"/>
		<polyline fill="#A06536" points="45.643,134.59 54.612,134.59 54.612,152.528 45.643,152.528 		"/>
		<polyline fill="#311F10" points="54.612,134.59 63.583,134.59 63.583,152.528 54.612,152.528 		"/>
		<polyline fill="#7F4C26" points="54.612,107.673 63.583,107.673 63.583,134.582 54.612,134.582 		"/>
		<polyline fill="#623B1E" points="63.583,107.673 72.553,107.673 72.553,134.582 63.583,134.582 		"/>
		<polyline fill="#623B1E" points="72.545,116.63 81.51,116.63 81.51,134.564 72.545,134.564 		"/>
		<polyline fill="#623B1E" points="81.523,125.614 90.492,125.614 90.492,134.59 81.523,134.59 		"/>
		<polyline fill="#7F4C26" points="90.492,125.614 117.395,125.614 117.395,134.59 90.492,134.59 		"/>
		<polyline fill="#7F4C26" points="81.51,116.642 99.464,116.642 99.464,125.614 81.51,125.614 		"/>
		<polyline fill="#7F4C26" points="72.553,107.661 90.499,107.661 90.499,116.642 72.553,116.642 		"/>
		<polyline fill="#7F4C26" points="63.583,98.706 81.523,98.706 81.523,107.677 63.583,107.677 		"/>
		<polyline fill="#7F4C26" points="63.583,89.72 72.545,89.72 72.545,98.699 63.583,98.699 		"/>
		<polyline fill="#A06536" points="63.583,62.827 72.545,62.827 72.545,89.736 63.583,89.736 		"/>
		<polyline fill="#A06536" points="72.553,53.85 90.492,53.85 90.492,62.827 72.553,62.827 		"/>
		<polyline fill="#A06536" points="90.492,44.874 99.45,44.874 99.45,53.85 90.492,53.85 		"/>
		<polyline fill="#7F4C26" points="99.45,44.874 117.387,44.874 117.387,53.85 99.45,53.85 		"/>
		<polyline fill="#7F4C26" points="90.48,53.85 126.348,53.85 126.348,62.827 90.48,62.827 		"/>
		<polyline fill="#7F4C26" points="72.545,62.821 108.417,62.821 108.417,71.797 72.545,71.797 		"/>
		<polyline fill="#B68154" points="117.395,35.906 126.36,35.906 126.36,44.874 117.395,44.874 		"/>
		<polyline fill="#B68154" points="126.368,35.906 153.267,35.906 153.267,53.833 126.368,53.833 		"/>
		<polyline fill="#B77741" points="117.395,44.874 126.36,44.874 126.36,53.85 117.395,53.85 		"/>
		<polyline fill="#B77741" points="126.36,53.85 135.325,53.85 135.325,62.827 126.36,62.827 		"/>
		<polyline fill="#B68154" points="135.34,53.85 144.31,53.85 144.31,62.827 135.34,62.827 		"/>
		<polyline fill="#B77741" points="144.31,53.85 162.25,53.85 162.25,62.827 144.31,62.827 		"/>
		<polyline fill="#B77741" points="126.36,62.821 162.236,62.821 162.236,107.661 126.36,107.661 		"/>
		<polyline fill="#B77741" points="117.399,89.73 126.36,89.73 126.36,125.6 117.399,125.6 		"/>
		<polyline fill="#A06536" points="126.36,116.642 135.325,116.642 135.325,125.614 126.36,125.614 		"/>
		<polyline fill="#B77741" points="126.368,107.661 153.267,107.661 153.267,116.642 126.368,116.642 		"/>
		<polyline fill="#B77741" points="135.34,116.642 144.31,116.642 144.31,125.614 135.34,125.614 		"/>
		<polyline fill="#B77741" points="72.545,71.797 81.51,71.797 81.51,89.736 72.545,89.736 		"/>
		<polyline fill="#A06536" points="117.399,62.827 126.368,62.827 126.368,89.736 117.399,89.736 		"/>
		<polyline fill="#A06536" points="108.425,62.821 117.395,62.821 117.395,71.797 108.425,71.797 		"/>
		<polyline fill="#A06536" points="99.45,71.797 117.387,71.797 117.387,125.614 99.45,125.614 		"/>
		<polyline fill="#A06536" points="90.48,71.789 99.45,71.789 99.45,116.63 90.48,116.63 		"/>
		<polyline fill="#A06536" points="81.523,71.797 90.492,71.797 90.492,107.673 81.523,107.673 		"/>
		<polyline fill="#A06536" points="72.545,89.72 81.51,89.72 81.51,98.699 72.545,98.699 		"/>
	</g>
</g>
</svg>
